<svg width="56" height="56" viewBox="0 0 56 56" fill="none" xmlns="http://www.w3.org/2000/svg">
<rect width="56" height="56" rx="8" fill="#1E6EE2"/>
<path d="M24.9213 29.0323C25.873 29.0323 26.3497 29.0323 26.748 28.869C27.1147 28.7207 27.4347 28.4757 27.6747 28.159C27.9347 27.8173 28.0597 27.3573 28.3063 26.439L28.743 24.8207C29.2113 23.0856 29.4447 22.2189 29.2497 21.5323C29.0713 20.9039 28.6597 20.3689 28.1013 20.0323C27.4897 19.6656 26.5913 19.6656 24.7947 19.6656H23.1447C22.8364 19.6656 22.7781 19.5456 22.8647 19.2756C24.0564 15.5706 23.4447 14.0956 22.2631 13.8523C21.8114 13.7589 21.6231 13.7639 21.2664 14.1123C20.1097 15.4756 18.1581 17.6089 17.0931 18.7639C16.8181 19.0639 16.6797 19.2123 16.5814 19.3806C16.4914 19.5373 16.4264 19.7039 16.3864 19.8806C16.3447 20.0706 16.3447 20.2723 16.3447 20.6756V25.6207C16.3447 26.8023 16.3447 27.3923 16.5714 27.8457C16.7781 28.2607 17.1147 28.5973 17.5314 28.8057C17.9831 29.0323 18.5747 29.0323 19.7547 29.0323" stroke="white" stroke-width="2.5" stroke-linecap="round" stroke-linejoin="round"/>
<path d="M31.079 42.2012C30.1274 42.2012 29.6507 42.2012 29.2524 42.0395C28.8857 41.8895 28.5657 41.6445 28.3257 41.3295C28.0657 40.9862 27.9407 40.5262 27.694 39.6079L27.2574 37.9895C26.789 36.2545 26.5557 35.3879 26.7507 34.7012C26.929 34.0745 27.3407 33.5379 27.899 33.2012C28.5107 32.8345 29.409 32.8345 31.2057 32.8345H32.8557C33.164 32.8345 33.224 32.7145 33.1357 32.4445C31.944 28.7412 32.5557 27.2645 33.7374 27.0229C34.189 26.9295 34.3774 26.9345 34.734 27.2812C35.8907 28.6445 37.8424 30.7795 38.9074 31.9345C39.1824 32.2329 39.3207 32.3812 39.419 32.5495C39.509 32.7062 39.574 32.8729 39.614 33.0495C39.6557 33.2395 39.6557 33.4429 39.6557 33.8462V38.7895C39.6557 39.9712 39.6557 40.5629 39.429 41.0145C39.2224 41.4312 38.8857 41.7679 38.469 41.9745C38.0174 42.2012 37.4257 42.2012 36.2457 42.2012" stroke="white" stroke-width="2.5" stroke-linecap="round" stroke-linejoin="round"/>
<path d="M13.0017 28.6643V20.4609" stroke="white" stroke-width="2.5" stroke-linecap="round" stroke-linejoin="round"/>
<path d="M42.9983 41.8348V33.6315" stroke="white" stroke-width="2.5" stroke-linecap="round" stroke-linejoin="round"/>
<path d="M39.8115 20.595L41.4982 19.155" stroke="white" stroke-width="2.5" stroke-linecap="round" stroke-linejoin="round"/>
<path d="M16.3615 36.0952L14.6748 37.5352" stroke="white" stroke-width="2.5" stroke-linecap="round" stroke-linejoin="round"/>
<path d="M35.6311 17.5476L36.3778 15.4609" stroke="white" stroke-width="2.5" stroke-linecap="round" stroke-linejoin="round"/>
<path d="M20.5404 39.1459L19.7954 41.2325" stroke="white" stroke-width="2.5" stroke-linecap="round" stroke-linejoin="round"/>
</svg>
