<svg width="56" height="56" viewBox="0 0 56 56" fill="none" xmlns="http://www.w3.org/2000/svg">
<rect width="56" height="56" rx="8" fill="#1E6EE2"/>
<path fill-rule="evenodd" clip-rule="evenodd" d="M23.8994 11.8427C23.519 11.6874 23.0865 11.729 22.7426 11.954L15.7914 16.5016C15.4384 16.7325 15.2257 17.1258 15.2257 17.5476V21.79L12.4286 23.2278C12.012 23.442 11.7501 23.8711 11.7501 24.3396V31.6608C11.7501 32.1293 12.0121 32.5587 12.4289 32.7727L15.2257 34.2097V38.4465C15.2257 38.868 15.4382 39.2612 15.7908 39.4922L22.742 44.0457C23.0865 44.2713 23.5201 44.3128 23.9012 44.1565L28.4744 42.2817C29.113 42.0197 29.4185 41.2897 29.1567 40.6508C28.8949 40.0122 28.1647 39.7065 27.5259 39.9685L23.5616 41.5938L17.7257 37.771V33.4465C17.7257 32.978 17.4637 32.5488 17.047 32.3347L14.2501 30.8978V25.1025L17.0472 23.6646C17.4638 23.4505 17.7257 23.0213 17.7257 22.5529V18.2236L23.5621 14.4053L27.5277 16.0242C28.1669 16.2851 28.8965 15.9785 29.1574 15.3394C29.4184 14.7002 29.1117 13.9706 28.4725 13.7097L23.8994 11.8427Z" fill="white"/>
<path fill-rule="evenodd" clip-rule="evenodd" d="M32.099 11.8434C32.48 11.6872 32.9135 11.7287 33.2582 11.9544L40.2093 16.5079C40.562 16.7389 40.7743 17.132 40.7743 17.5535V21.7903L43.5712 23.2273C43.988 23.4414 44.25 23.8706 44.25 24.3391V31.6605C44.25 32.1288 43.9882 32.558 43.5715 32.7722L40.7743 34.21V38.4523C40.7743 38.8742 40.5617 39.2675 40.2087 39.4985L33.2575 44.046C32.9137 44.271 32.4812 44.3127 32.1007 44.1573L27.5275 42.2903C27.0573 42.0983 26.75 41.641 26.75 41.133V38.2083C26.75 37.518 27.3097 36.9583 28 36.9583C28.6903 36.9583 29.25 37.518 29.25 38.2083V40.2932L32.438 41.5947L38.2743 37.7765V33.4472C38.2743 32.9787 38.5363 32.5495 38.9528 32.3353L41.75 30.8975V25.1022L38.9532 23.6653C38.5363 23.4512 38.2743 23.022 38.2743 22.5535V18.229L32.4385 14.4062L29.25 15.7135V17.7931C29.25 18.4835 28.6903 19.0431 28 19.0431C27.3097 19.0431 26.75 18.4835 26.75 17.7931V14.875C26.75 14.3678 27.0565 13.9108 27.5258 13.7184L32.099 11.8434Z" fill="white"/>
<path fill-rule="evenodd" clip-rule="evenodd" d="M21.9355 30.3763C21.9355 29.686 22.4952 29.1263 23.1855 29.1263H26.3217C27.0122 29.1263 27.5717 29.686 27.5717 30.3763C27.5717 31.0667 27.0122 31.6263 26.3217 31.6263H24.4355V33.2935C24.4355 33.984 23.8759 34.5435 23.1855 34.5435C22.4952 34.5435 21.9355 33.984 21.9355 33.2935V30.3763Z" fill="white"/>
<path fill-rule="evenodd" clip-rule="evenodd" d="M32.8127 21.457C33.503 21.457 34.0627 22.0167 34.0627 22.707V25.8432C34.0627 26.5335 33.503 27.0932 32.8127 27.0932H29.6765C28.986 27.0932 28.4265 26.5335 28.4265 25.8432C28.4265 25.1528 28.986 24.5932 29.6765 24.5932H31.5627V22.707C31.5627 22.0167 32.1223 21.457 32.8127 21.457Z" fill="white"/>
<path fill-rule="evenodd" clip-rule="evenodd" d="M27.7165 24.2858C26.279 24.2858 25.0405 25.0541 24.3777 26.2123C24.0348 26.8115 23.2711 27.0193 22.6719 26.6763C22.0727 26.3335 21.865 25.5696 22.2079 24.9705C23.3029 23.0574 25.3562 21.7858 27.7165 21.7858C29.7879 21.7858 31.3352 22.6501 32.3405 23.4863C32.8424 23.9036 33.2182 24.3205 33.4714 24.6367C33.5984 24.7953 33.6962 24.9306 33.7647 25.0308C33.799 25.0808 33.8262 25.1223 33.8464 25.1536L33.871 25.193L33.8795 25.2066L33.8827 25.212L33.884 25.2141C33.8844 25.2146 33.8854 25.2161 32.8359 25.8455L33.8854 25.2161C34.2404 25.8081 34.0482 26.576 33.456 26.931C32.8662 27.2848 32.1019 27.0953 31.7452 26.5085L31.7405 26.501C31.734 26.491 31.7215 26.4718 31.703 26.4446C31.6657 26.3903 31.6045 26.305 31.5197 26.1991C31.349 25.9858 31.0889 25.697 30.742 25.4085C30.05 24.833 29.049 24.2858 27.7165 24.2858Z" fill="white"/>
<path fill-rule="evenodd" clip-rule="evenodd" d="M22.5333 29.323C23.1209 28.9638 23.8881 29.1475 24.2493 29.7331L24.2561 29.7438C24.2638 29.7558 24.2777 29.777 24.2975 29.806C24.3373 29.8643 24.4005 29.9535 24.4858 30.0631C24.6579 30.2845 24.912 30.5796 25.2362 30.872C25.9007 31.4713 26.7469 31.9611 27.7179 31.9611C29.1375 31.9611 30.3799 31.1938 31.043 30.0463C31.3884 29.4485 32.153 29.244 32.7507 29.5893C33.3485 29.9346 33.553 30.6993 33.2077 31.297C32.113 33.1915 30.0602 34.4611 27.7179 34.4611C25.8817 34.4611 24.4618 33.5401 23.5619 32.7286C23.1039 32.3155 22.7512 31.9051 22.512 31.5975C22.3917 31.4426 22.2982 31.3115 22.2326 31.2155C22.1998 31.1673 22.1739 31.1278 22.1549 31.0985L22.1317 31.062L22.124 31.0498L22.1212 31.0451L22.12 31.0433C22.1198 31.043 22.119 31.0416 23.1855 30.3895" fill="white"/>
</svg>
