<svg xmlns="http://www.w3.org/2000/svg" width="176" height="56" viewBox="0 0 176 56" fill="none">
    <path d="M69.5986 15.2278H78.9084C83.9993 15.2278 86.6496 17.8781 86.6496 21.4696C86.6496 24.5732 84.7316 26.3863 82.3604 27.0484C85.1503 27.5719 87.2068 30.0124 87.2068 32.9765C87.2068 36.8124 84.3822 39.6369 79.2221 39.6369H69.5986V15.2278ZM78.4205 25.6539C81.2104 25.6539 82.7097 24.2941 82.7097 21.9932C82.7097 19.6922 81.2797 18.3314 78.3513 18.3314H73.4346V25.6539H78.4205ZM78.6996 36.4987C81.629 36.4987 83.3026 35.0686 83.3026 32.5935C83.3026 30.1183 81.5241 28.5833 78.6303 28.5833H73.4346V36.4987H78.6996Z" fill="#1E6EE2"/>
    <path d="M88.8809 22.3405H92.7168V24.9908C93.5887 23.2827 94.9485 22.2009 96.8319 22.2009H99.2377V25.6529H96.4479C94.042 25.6529 92.7168 27.5709 92.7168 31.7552V39.6359H88.8809V22.3405Z" fill="#1E6EE2"/>
    <path d="M100.319 15.1229H104.434V19.2725H100.319V15.1229ZM100.458 22.3405H104.294V39.6359H100.458V22.3405Z" fill="#1E6EE2"/>
    <path d="M105.48 31.0575C105.48 25.6529 109.037 21.9219 114.302 21.9219C119.567 21.9219 122.74 25.6529 122.74 30.2558C122.74 30.7437 122.74 31.2673 122.67 31.8947H109.28C109.489 35.1022 111.652 36.8807 114.266 36.8807C116.288 36.8807 117.718 35.8692 118.381 34.3006H122.252C121.311 37.5784 118.381 40.0535 114.267 40.0535C109.106 40.0535 105.48 36.4274 105.48 31.0575ZM109.351 29.3137H118.905C118.765 26.699 116.847 25.0601 114.267 25.0601C111.861 25.0601 109.769 26.4902 109.351 29.3137Z" fill="#1E6EE2"/>
    <path d="M126.052 25.5836H123.576V22.3405H126.052V19.7248C126.052 15.3663 127.517 14.529 131.422 14.529H140.906V39.6349H137.07V17.8078H132.153C130.305 17.8078 129.887 18.1918 129.887 19.9692V22.3405H133.409V25.5836H129.887V39.6359H126.051V25.5836H126.052Z" fill="#1E6EE2"/>
    <path d="M143.73 14.53H147.566V39.6359H143.73V14.53Z" fill="#1E6EE2"/>
    <path d="M156.388 39.4261L149.101 22.3405H153.285L158.481 35.033L163.956 22.3405H168L158.69 43.2274C157.121 46.8189 156.703 47.3068 154.472 47.3068H149.381V44.2032H152.972C154.018 44.2032 154.367 43.9944 155.204 42.0418L156.39 39.4271L156.388 39.4261Z" fill="#1E6EE2"/>
    <path d="M19.9673 27.9355H8V39.9028H19.9673V27.9355Z" fill="#AAC4F2"/>
    <path d="M31.9345 27.9355H19.9673V39.9028H31.9345V27.9355Z" fill="#6997EA"/>
    <path d="M43.9028 27.9355H31.9355V39.9028H43.9028V27.9355Z" fill="#94B5EE"/>
    <path d="M55.8711 37.339V39.9028H43.9028V27.9345H46.4666C51.6613 27.9345 55.8711 32.1463 55.8711 37.339Z" fill="#2C6CE0"/>
    <path d="M31.9345 39.9028H19.9673V51.87H31.9345V39.9028Z" fill="#B7CDF4"/>
    <path d="M43.9028 39.9028H31.9355V51.87H43.9028V39.9028Z" fill="#5589E6"/>
    <path d="M55.8711 39.9028V42.4665C55.8711 47.6613 51.6613 51.871 46.4666 51.871H43.9028V39.9028H55.8711Z" fill="#6997EA"/>
    <path d="M31.9345 15.9683H19.9673V27.9355H31.9345V15.9683Z" fill="#2C6CE0"/>
    <path d="M19.9673 4H8V15.9673H19.9673V4Z" fill="#6997EA"/>
    <path d="M43.9028 15.9683H31.9355V27.9355H43.9028V15.9683Z" fill="#B7CDF4"/>
    <path d="M55.8711 15.9683V18.53C55.8711 23.7247 51.6613 27.9345 46.4666 27.9345H43.9028V15.9683H55.8711Z" fill="#6997EA"/>
    <path d="M43.9028 4H31.9355V15.9673H43.9028V4Z" fill="#5589E6"/>
    <path d="M55.8711 13.4045V15.9683H43.9028V4H46.4666C51.6613 4 55.8711 8.20978 55.8711 13.4045Z" fill="#AAC4F2"/>
  </svg>