<svg xmlns="http://www.w3.org/2000/svg" width="256" height="77" viewBox="0 0 256 77" fill="none">
    <g clip-path="url(#clip0_2316_1377)">
        <path
            d="M98.5566 17.9644H113.452C121.598 17.9644 125.838 22.2049 125.838 27.9513C125.838 32.9171 122.769 35.818 118.975 36.8773C123.439 37.715 126.73 41.6198 126.73 46.3623C126.73 52.4998 122.21 57.019 113.954 57.019H98.5566V17.9644ZM112.672 34.6462C117.135 34.6462 119.534 32.4705 119.534 28.789C119.534 25.1074 117.246 22.9301 112.561 22.9301H104.694V34.6462H112.672ZM113.118 51.9978C117.805 51.9978 120.483 49.7097 120.483 45.7495C120.483 41.7893 117.637 39.3333 113.007 39.3333H104.694V51.9978H113.118Z"
            fill="white" />
        <path
            d="M129.409 29.3449H135.547V33.5854C136.942 30.8523 139.118 29.1216 142.131 29.1216H145.98V34.6447H141.517C137.667 34.6447 135.547 37.7135 135.547 44.4084V57.0175H129.409V29.3449Z"
            fill="white" />
        <path
            d="M147.71 17.7966H154.294V24.4361H147.71V17.7966ZM147.933 29.3448H154.071V57.0175H147.933V29.3448Z"
            fill="white" />
        <path
            d="M155.968 43.292C155.968 34.6447 161.659 28.675 170.083 28.675C178.507 28.675 183.583 34.6447 183.583 42.0094C183.583 42.7901 183.583 43.6277 183.472 44.6317H162.048C162.382 49.7637 165.842 52.6091 170.026 52.6091C173.261 52.6091 175.549 50.9908 176.61 48.4811H182.803C181.297 53.7255 176.61 57.6857 170.027 57.6857C161.769 57.6857 155.968 51.8839 155.968 43.292ZM162.16 40.5019H177.447C177.224 36.3184 174.155 33.6962 170.027 33.6962C166.178 33.6962 162.83 35.9844 162.16 40.5019Z"
            fill="white" />
        <path
            d="M188.883 34.5338H184.921V29.3448H188.883V25.1596C188.883 18.1861 191.226 16.8464 197.475 16.8464H212.649V57.0158H206.511V22.0925H198.645C195.688 22.0925 195.019 22.7069 195.019 25.5508V29.3448H200.654V34.5338H195.019V57.0175H188.881V34.5338H188.883Z"
            fill="white" />
        <path d="M217.168 16.8481H223.306V57.0175H217.168V16.8481Z" fill="white" />
        <path
            d="M237.421 56.6817L225.76 29.3447H232.455L240.768 49.6527L249.528 29.3447H256L241.104 62.7638C238.593 68.5102 237.924 69.2908 234.354 69.2908H226.208V64.3251H231.955C233.629 64.3251 234.186 63.991 235.526 60.8668L237.423 56.6833L237.421 56.6817Z"
            fill="white" />
        <path d="M19.1476 38.2969H0V57.4445H19.1476V38.2969Z" fill="#78A8EE" />
        <path d="M38.2953 38.2969H19.1477V57.4445H38.2953V38.2969Z" fill="#BCD4F6" />
        <path d="M57.4445 38.2969H38.2969V57.4445H57.4445V38.2969Z" fill="#8EB6F1" />
        <path
            d="M76.5936 53.3424V57.4444H57.4443V38.2952H61.5463C69.8579 38.2952 76.5936 45.0341 76.5936 53.3424Z"
            fill="white" />
        <path d="M38.2953 57.4446H19.1477V76.5922H38.2953V57.4446Z" fill="#6B9FEC" />
        <path d="M57.4445 57.4446H38.2969V76.5922H57.4445V57.4446Z" fill="#D2E2F9" />
        <path
            d="M76.5936 57.4446V61.5466C76.5936 69.8582 69.8579 76.5938 61.5463 76.5938H57.4443V57.4446H76.5936Z"
            fill="#BCD4F6" />
        <path d="M38.2953 19.1492H19.1477V38.2968H38.2953V19.1492Z" fill="white" />
        <path d="M19.1476 0H0V19.1476H19.1476V0Z" fill="#BCD4F6" />
        <path d="M57.4445 19.1492H38.2969V38.2968H57.4445V19.1492Z" fill="#6B9FEC" />
        <path
            d="M76.5936 19.1492V23.2479C76.5936 31.5595 69.8579 38.2951 61.5463 38.2951H57.4443V19.1492H76.5936Z"
            fill="#BCD4F6" />
        <path d="M57.4445 0H38.2969V19.1476H57.4445V0Z" fill="#D2E2F9" />
        <path
            d="M76.5936 15.0472V19.1492H57.4443V0H61.5463C69.8579 0 76.5936 6.73564 76.5936 15.0472Z"
            fill="#78A8EE" />
    </g>
    <defs>
        <clipPath id="clip0_2316_1377">
            <rect width="256" height="76.5937" fill="white" />
        </clipPath>
    </defs>
</svg>