<svg xmlns="http://www.w3.org/2000/svg" width="24" height="24" viewBox="0 0 24 24" fill="none">
    <path fill-rule="evenodd" clip-rule="evenodd"
        d="M7.45791 3.9338C8.67372 2.99225 10.0646 2.72793 11.5382 3.30059C12.6792 3.74419 13.7562 4.04637 14.8788 3.98308C15.0362 3.97386 15.4565 3.92506 15.8669 3.87407C16.0659 3.84935 16.2537 3.82527 16.3918 3.80735L16.5565 3.78584L16.6164 3.77794L16.6174 3.77782C16.8651 3.7449 17.1114 3.84812 17.2617 4.04788C17.412 4.24762 17.443 4.51287 17.3426 4.74184L15.8234 8.21068C15.8936 8.32012 15.964 8.42984 16.0346 8.53983C16.5682 9.37092 17.1113 10.2171 17.6226 11.068C18.6511 12.7794 19.8628 15.0126 18.9093 17.3906C18.9093 17.3907 18.9094 17.3906 18.9093 17.3906C18.3538 18.7766 17.2706 19.6741 16.0402 20.2215C14.8179 20.7653 13.4199 20.9798 12.1381 21C12.1308 21.0002 12.1236 21.0002 12.1163 21C10.8349 20.9798 9.43712 20.7653 8.21502 20.2215C6.98466 19.6741 5.90154 18.7766 5.34598 17.3906C4.39251 15.0126 5.60418 12.7793 6.63274 11.068C7.11165 10.2709 7.62077 9.4801 8.1217 8.702C8.21972 8.54976 8.31742 8.39799 8.41453 8.24677L6.78442 5.19634C6.63145 4.91009 6.69787 4.556 6.94419 4.34464L6.94557 4.34346L6.94777 4.34159L6.95467 4.33573L6.97887 4.31543C6.99975 4.29802 7.03032 4.27277 7.07165 4.23922C7.15429 4.1721 7.28036 4.07143 7.45791 3.9338ZM8.27669 5.05103L9.82699 7.95211C9.94494 8.17285 9.93459 8.44006 9.79989 8.651C9.62527 8.92446 9.45046 9.19599 9.27631 9.4665C8.77869 10.2395 8.28649 11.004 7.8196 11.781C6.75377 13.5545 5.96268 15.2082 6.63114 16.8753C7.0195 17.8442 7.78518 18.5148 8.77786 18.9565C9.77568 19.4004 10.9709 19.596 12.1272 19.6154C13.284 19.596 14.4794 19.4004 15.4774 18.9564C16.4701 18.5148 17.2357 17.8443 17.6242 16.8754C18.2926 15.2083 17.5016 13.5545 16.4358 11.7811C15.9361 10.9496 15.4072 10.1257 14.8751 9.29657C14.7359 9.0798 14.5965 8.86266 14.4574 8.64495C14.3328 8.45017 14.3138 8.20612 14.4065 7.99438L15.5854 5.30275C15.3302 5.33244 15.0928 5.35758 14.9588 5.36539L14.9576 5.36547C13.5371 5.44572 12.2378 5.05816 11.0367 4.59118M8.27669 5.05103C8.28618 5.04365 8.29584 5.03616 8.30568 5.02852L8.27669 5.05103ZM8.30568 5.02852C9.168 4.36084 10.0514 4.20833 11.0367 4.59118L8.30568 5.02852Z"
        fill="#1E6EE2" />
    <path fill-rule="evenodd" clip-rule="evenodd"
        d="M8.54339 8.13111C8.62905 7.75848 9.00056 7.52584 9.3732 7.6115C11.2128 8.03441 13.0476 8.03441 14.8873 7.6115C15.2599 7.52584 15.6314 7.75848 15.7171 8.13111C15.8027 8.50375 15.5701 8.87526 15.1975 8.96092C13.1537 9.43076 11.1068 9.43076 9.06299 8.96092C8.69036 8.87526 8.45772 8.50375 8.54339 8.13111Z"
        fill="#1E6EE2" />
</svg>